<svg width="17" height="17" viewBox="0 0 17 17" fill="none" xmlns="http://www.w3.org/2000/svg">
<g clip-path="url(#clip0_3130_388)">
<rect x="0.1716" y="7.46355" width="9.3657" height="9.3657" fill="#7595FD"/>
<path d="M4.4263 13.3372L4.59354 14.8223L5.67729 13.7921L7.53036 8.70785C7.07545 8.59412 6.67407 8.36667 6.34627 8.05225L4.4263 13.3372ZM10.0524 8.05225C9.72461 8.36667 9.31653 8.59412 8.86832 8.70785L10.7214 13.7921L11.8051 14.8223L11.9791 13.3372L10.0524 8.05225V8.05225ZM10.1661 6.52698C10.3668 5.48337 9.76475 4.56018 8.86832 4.23907V3.44968C8.86832 3.08174 8.56728 2.7807 8.19934 2.7807C7.8314 2.7807 7.53036 3.08174 7.53036 3.44968V4.23907C6.75434 4.52004 6.1924 5.25592 6.1924 6.12559C6.1924 7.35651 7.30291 8.33322 8.57397 8.09908C9.36336 7.9519 10.0123 7.31637 10.1661 6.52698V6.52698ZM8.19934 6.79457C7.8314 6.79457 7.53036 6.49353 7.53036 6.12559C7.53036 5.75765 7.8314 5.45661 8.19934 5.45661C8.56728 5.45661 8.86832 5.75765 8.86832 6.12559C8.86832 6.49353 8.56728 6.79457 8.19934 6.79457Z" fill="#292E3D"/>
</g>
<defs>
<clipPath id="clip0_3130_388">
<rect width="16.0555" height="16.0555" fill="white" transform="translate(0.1716 0.773758)"/>
</clipPath>
</defs>
</svg>
