<svg width="17" height="17" viewBox="0 0 17 17" fill="none" xmlns="http://www.w3.org/2000/svg">
<g clip-path="url(#clip0_3130_367)">
<rect x="0.0597992" y="7.54593" width="9.3657" height="9.3657" fill="#7595FD"/>
<path d="M12.7644 2.19409H6.08729C5.34405 2.19409 4.74264 2.7955 4.74264 3.53874V7.30977L1.5971 10.4152C1.50285 10.5084 1.43842 10.6275 1.41198 10.7574C1.38555 10.8873 1.3983 11.0221 1.44861 11.1447C1.49893 11.2674 1.58454 11.3723 1.69459 11.4462C1.80464 11.5201 1.93417 11.5596 2.06673 11.5598V14.9047C2.06673 15.0821 2.13721 15.2523 2.26267 15.3777C2.38812 15.5032 2.55828 15.5737 2.7357 15.5737H13.4394C13.6168 15.5737 13.7869 15.5032 13.9124 15.3777C14.0379 15.2523 14.1083 15.0821 14.1083 14.9047V3.53807C14.1083 2.7955 13.5076 2.19409 12.7644 2.19409ZM7.36637 10.9651V14.2357H3.40468V10.5108L5.40292 8.53801L7.36637 10.547V10.9651V10.9651ZM8.75651 6.87694H7.41855V5.53898H8.75651V6.87694ZM11.4324 12.2288H10.0945V10.8908H11.4324V12.2288ZM11.4324 9.55285H10.0945V8.2149H11.4324V9.55285ZM11.4324 6.87694H10.0945V5.53898H11.4324V6.87694Z" fill="#292E3D"/>
<path d="M4.74265 10.8908H6.0806V12.2288H4.74265V10.8908Z" fill="#14171F"/>
</g>
<defs>
<clipPath id="clip0_3130_367">
<rect width="16.0555" height="16.0555" fill="white" transform="translate(0.0597916 0.85614)"/>
</clipPath>
</defs>
</svg>
