<svg width="17" height="17" viewBox="0 0 17 17" fill="none" xmlns="http://www.w3.org/2000/svg">
<g clip-path="url(#clip0_3130_378)">
<rect x="0.0827332" y="7.54593" width="9.3657" height="9.3657" fill="#7595FD"/>
<path d="M7.44151 4.86999H9.44844L11.6494 2.66236C11.7116 2.59966 11.7856 2.54989 11.8671 2.51593C11.9486 2.48196 12.036 2.46448 12.1244 2.46448C12.2127 2.46448 12.3001 2.48196 12.3816 2.51593C12.4631 2.54989 12.5371 2.59966 12.5993 2.66236L14.3253 4.39501C14.4499 4.52036 14.5198 4.68991 14.5198 4.86664C14.5198 5.04338 14.4499 5.21293 14.3253 5.33827L12.7933 6.87692H7.44151V8.21488C7.44151 8.3923 7.37102 8.56246 7.24557 8.68792C7.12011 8.81338 6.94995 8.88386 6.77253 8.88386C6.5951 8.88386 6.42495 8.81338 6.29949 8.68792C6.17403 8.56246 6.10355 8.3923 6.10355 8.21488V6.20795C6.10355 5.8531 6.24451 5.51278 6.49543 5.26187C6.74634 5.01095 7.08666 4.86999 7.44151 4.86999ZM3.42764 8.21488V10.8908L1.89568 12.4228C1.77108 12.5481 1.70114 12.7176 1.70114 12.8944C1.70114 13.0711 1.77108 13.2407 1.89568 13.366L3.62164 15.0987C3.68383 15.1614 3.75782 15.2111 3.83934 15.2451C3.92086 15.2791 4.0083 15.2966 4.09661 15.2966C4.18493 15.2966 4.27237 15.2791 4.35389 15.2451C4.43541 15.2111 4.5094 15.1614 4.57159 15.0987L7.44151 12.2288H10.1174C10.2948 12.2288 10.465 12.1583 10.5905 12.0328C10.7159 11.9074 10.7864 11.7372 10.7864 11.5598V10.8908H11.4554C11.6328 10.8908 11.803 10.8203 11.9284 10.6949C12.0539 10.5694 12.1244 10.3992 12.1244 10.2218V9.55284H12.7933C12.9708 9.55284 13.1409 9.48236 13.2664 9.3569C13.3918 9.23144 13.4623 9.06128 13.4623 8.88386V8.21488H8.77946V8.88386C8.77946 9.23871 8.6385 9.57902 8.38758 9.82994C8.13667 10.0809 7.79635 10.2218 7.44151 10.2218H6.10355C5.7487 10.2218 5.40839 10.0809 5.15747 9.82994C4.90656 9.57902 4.76559 9.23871 4.76559 8.88386V6.87692L3.42764 8.21488Z" fill="#292E3D"/>
</g>
<defs>
<clipPath id="clip0_3130_378">
<rect width="16.0555" height="16.0555" fill="white" transform="translate(0.0827332 0.85614)"/>
</clipPath>
</defs>
</svg>
