<svg width="17" height="17" viewBox="0 0 17 17" fill="none" xmlns="http://www.w3.org/2000/svg">
<g clip-path="url(#clip0_3130_393)">
<rect x="0.0827332" y="7.46355" width="9.3657" height="9.3657" fill="#7595FD"/>
<path d="M14.1313 10.1395C14.1313 9.77152 13.8302 9.47048 13.4623 9.47048H12.1243V10.8084H13.4623C13.8302 10.8084 14.1313 10.5074 14.1313 10.1395ZM13.4623 12.1464H12.1243V13.4843H13.4623C13.8302 13.4843 14.1313 13.1833 14.1313 12.8154C14.1313 12.4474 13.8302 12.1464 13.4623 12.1464ZM8.11048 10.1395H6.77252V12.8154H8.11048C8.11048 13.5512 8.71256 14.1533 9.44844 14.1533H11.4554V8.8015H9.44844C8.71256 8.8015 8.11048 9.40358 8.11048 10.1395Z" fill="white"/>
<path d="M3.42762 9.47048C3.42762 8.73461 4.0297 8.13253 4.76557 8.13253H5.76904C7.06017 8.13253 8.11047 7.08223 8.11047 5.7911C8.11047 4.49997 7.06017 3.44968 5.76904 3.44968H3.42762C3.05968 3.44968 2.75864 3.75072 2.75864 4.11865C2.75864 4.48659 3.05968 4.78763 3.42762 4.78763H5.76904C6.32429 4.78763 6.77251 5.23585 6.77251 5.7911C6.77251 6.34635 6.32429 6.79457 5.76904 6.79457H4.76557C3.28713 6.79457 2.08966 7.99204 2.08966 9.47048C2.08966 10.9489 3.28713 12.1464 4.76557 12.1464H6.10353V10.8084H4.76557C4.0297 10.8084 3.42762 10.2064 3.42762 9.47048Z" fill="white"/>
</g>
<defs>
<clipPath id="clip0_3130_393">
<rect width="16.0555" height="16.0555" fill="white" transform="translate(0.0827332 0.773758)"/>
</clipPath>
</defs>
</svg>
