<svg width="17" height="17" viewBox="0 0 17 17" fill="none" xmlns="http://www.w3.org/2000/svg">
<g clip-path="url(#clip0_3120_681)">
<path fill-rule="evenodd" clip-rule="evenodd" d="M0.853851 8.60479C0.853851 12.5959 3.75253 15.9147 7.54364 16.5877V10.7897H5.5367V8.55997H7.54364V6.7758C7.54364 4.76887 8.83677 3.65435 10.6658 3.65435C11.2451 3.65435 11.8699 3.74332 12.4493 3.8323V5.88405H11.4237C10.4423 5.88405 10.2195 6.37441 10.2195 6.99924V8.55997H12.3603L12.0037 10.7897H10.2195V16.5877C14.0106 15.9147 16.9093 12.5966 16.9093 8.60479C16.9093 4.16478 13.2968 0.532227 8.88159 0.532227C4.46633 0.532227 0.853851 4.16478 0.853851 8.60479Z" fill="#3D445C"/>
</g>
<defs>
<clipPath id="clip0_3120_681">
<rect width="16.0555" height="16.0555" fill="white" transform="translate(0.853851 0.532227)"/>
</clipPath>
</defs>
</svg>
