<svg width="17" height="17" viewBox="0 0 17 17" fill="none" xmlns="http://www.w3.org/2000/svg">
<g clip-path="url(#clip0_3120_683)">
<path d="M8.96481 0.853271C4.7085 0.853271 1.25818 4.30359 1.25818 8.5599C1.25818 12.8162 4.7085 16.2665 8.96481 16.2665C13.2211 16.2665 16.6714 12.8162 16.6714 8.5599C16.6714 4.30359 13.2211 0.853271 8.96481 0.853271ZM7.07829 11.7541H5.5177V6.73199H7.07829V11.7541ZM6.28836 6.11546C5.79546 6.11546 5.47676 5.76625 5.47676 5.33436C5.47676 4.89363 5.80509 4.55486 6.30843 4.55486C6.81177 4.55486 7.12003 4.89363 7.12967 5.33436C7.12967 5.76625 6.81177 6.11546 6.28836 6.11546ZM12.778 11.7541H11.2174V8.97092C11.2174 8.32308 10.991 7.88316 10.4267 7.88316C9.99557 7.88316 9.73949 8.18099 9.6263 8.46758C9.58455 8.56954 9.57411 8.71404 9.57411 8.85773V11.7533H8.01272V8.33352C8.01272 7.70655 7.99265 7.18234 7.97178 6.73118H9.32766L9.39911 7.42879H9.43042C9.63593 7.10126 10.1393 6.61799 10.9814 6.61799C12.0081 6.61799 12.778 7.30597 12.778 8.78468V11.7541Z" fill="#3D445C"/>
</g>
<defs>
<clipPath id="clip0_3120_683">
<rect width="16.0555" height="16.0555" fill="white" transform="translate(0.937073 0.532227)"/>
</clipPath>
</defs>
</svg>
