<svg width="18" height="17" viewBox="0 0 18 17" fill="none" xmlns="http://www.w3.org/2000/svg">
<g clip-path="url(#clip0_3130_373)">
<rect x="0.98822" y="7.54593" width="9.3657" height="9.3657" fill="#7595FD"/>
<path d="M14.0333 2.86307C13.5899 2.86343 13.1647 3.03974 12.8511 3.35331C12.5375 3.66688 12.3612 4.09207 12.3609 4.53552C12.3609 4.77434 12.413 5.00113 12.504 5.20784L11.1962 6.67892C10.7519 6.37225 10.2248 6.20799 9.68495 6.20796C9.1899 6.20796 8.73232 6.35246 8.33428 6.5866L6.81302 5.06602L6.79764 5.0814C6.92876 4.81515 7.00903 4.51879 7.00903 4.20103C7.00903 3.80409 6.89133 3.41607 6.6708 3.08603C6.45028 2.756 6.13684 2.49876 5.77012 2.34686C5.4034 2.19496 4.99987 2.15522 4.61057 2.23266C4.22126 2.31009 3.86366 2.50124 3.58298 2.78191C3.30231 3.06259 3.11116 3.42019 3.03373 3.80949C2.95629 4.1988 2.99603 4.60233 3.14793 4.96905C3.29983 5.33577 3.55707 5.64921 3.88711 5.86973C4.21714 6.09026 4.60516 6.20796 5.0021 6.20796C5.31986 6.20796 5.61555 6.12769 5.88247 5.99657L5.86709 6.01195L7.38834 7.53254C7.14259 7.94064 7.01154 8.4075 7.00903 8.88388C7.00903 9.55085 7.26325 10.1543 7.66798 10.6239L5.94402 12.3472C5.7508 12.2698 5.54471 12.2297 5.33659 12.2288C4.41474 12.2288 3.66414 12.9787 3.66414 13.9012C3.66414 14.8237 4.41474 15.5737 5.33659 15.5737C6.25844 15.5737 7.00903 14.8237 7.00903 13.9012C7.00903 13.6865 6.96488 13.4824 6.89062 13.2931L8.78919 11.3946C9.07082 11.4949 9.36919 11.5598 9.68495 11.5598C11.1607 11.5598 12.3609 10.3596 12.3609 8.88388C12.3609 8.45841 12.2518 8.0617 12.0745 7.7038L13.4908 6.10962C13.662 6.16849 13.8426 6.20796 14.0333 6.20796C14.9558 6.20796 15.7058 5.45804 15.7058 4.53552C15.7058 3.613 14.9558 2.86307 14.0333 2.86307ZM9.68495 10.2218C8.94706 10.2218 8.34699 9.62176 8.34699 8.88388C8.34699 8.14599 8.94706 7.54592 9.68495 7.54592C10.4228 7.54592 11.0229 8.14599 11.0229 8.88388C11.0229 9.62176 10.4228 10.2218 9.68495 10.2218Z" fill="white"/>
</g>
<defs>
<clipPath id="clip0_3130_373">
<rect width="16.0555" height="16.0555" fill="white" transform="translate(0.988235 0.85614)"/>
</clipPath>
</defs>
</svg>
