<svg width="17" height="17" viewBox="0 0 17 17" fill="none" xmlns="http://www.w3.org/2000/svg">
<g clip-path="url(#clip0_3130_383)">
<rect x="0.0597992" y="7.46355" width="9.3657" height="9.3657" fill="#7595FD"/>
<path d="M12.1014 11.4774H10.7634V10.8084H5.41162V11.4774H4.07366V10.8084H1.39775V14.1533H14.7773V10.8084H12.1014V11.4774ZM13.4394 6.12559H11.4324V4.78763C11.4324 4.05176 10.8303 3.44968 10.0945 3.44968H6.0806C5.34472 3.44968 4.74264 4.05176 4.74264 4.78763V6.12559H2.73571C1.99983 6.12559 1.39775 6.72767 1.39775 7.46355V10.1395H4.07366V8.8015H5.41162V10.1395H10.7634V8.8015H12.1014V10.1395H14.7773V7.46355C14.7773 6.72767 14.1752 6.12559 13.4394 6.12559ZM10.0945 6.12559H6.0806V4.78763H10.0945V6.12559Z" fill="white"/>
</g>
<defs>
<clipPath id="clip0_3130_383">
<rect width="16.0555" height="16.0555" fill="white" transform="translate(0.0597916 0.773758)"/>
</clipPath>
</defs>
</svg>
