<svg width="17" height="17" viewBox="0 0 17 17" fill="none" xmlns="http://www.w3.org/2000/svg">
<g clip-path="url(#clip0_3120_685)">
<path d="M8.04803 0.853271C3.79172 0.853271 0.3414 4.30359 0.3414 8.5599C0.3414 12.8162 3.79172 16.2665 8.04803 16.2665C12.3043 16.2665 15.7547 12.8162 15.7547 8.5599C15.7547 4.30359 12.3043 0.853271 8.04803 0.853271ZM11.1829 7.16629C11.1861 7.23211 11.1869 7.29794 11.1869 7.36216C11.1869 9.3691 9.6608 11.6819 6.86876 11.6819C6.04374 11.6833 5.23589 11.4463 4.54232 10.9995C4.66032 11.014 4.78154 11.0196 4.90437 11.0196C5.61563 11.0196 6.26989 10.778 6.78928 10.3702C6.47276 10.3639 6.16606 10.2591 5.91194 10.0703C5.65781 9.88154 5.46892 9.61817 5.37158 9.31692C5.59889 9.36014 5.83306 9.35108 6.05635 9.29043C5.7128 9.22096 5.40385 9.0348 5.18189 8.76354C4.95993 8.49227 4.83863 8.15259 4.83854 7.80208V7.78362C5.04325 7.89681 5.27766 7.96585 5.52652 7.97388C5.20444 7.75948 4.97645 7.43013 4.88915 7.0532C4.80186 6.67627 4.86186 6.28023 5.05689 5.94607C5.43818 6.41489 5.91366 6.79841 6.45257 7.07181C6.99148 7.3452 7.5818 7.50238 8.18531 7.53315C8.10858 7.20748 8.1416 6.86557 8.27924 6.5606C8.41687 6.25562 8.65141 6.00466 8.94639 5.84674C9.24137 5.68881 9.58026 5.63277 9.91038 5.68731C10.2405 5.74186 10.5433 5.90394 10.7718 6.14837C11.1116 6.08116 11.4373 5.95655 11.7352 5.7799C11.622 6.13162 11.3849 6.43028 11.0681 6.6204C11.369 6.58416 11.6628 6.50326 11.9399 6.38037C11.7364 6.68534 11.48 6.95149 11.1829 7.16629Z" fill="#3D445C"/>
</g>
<defs>
<clipPath id="clip0_3120_685">
<rect width="16.0555" height="16.0555" fill="white" transform="translate(0.0202942 0.532227)"/>
</clipPath>
</defs>
</svg>
