<svg width="11" height="8" viewBox="0 0 11 8" fill="none" xmlns="http://www.w3.org/2000/svg">
<path fill-rule="evenodd" clip-rule="evenodd" d="M10.4756 4.37926C10.4756 4.27873 10.4364 4.18232 10.3665 4.11124C10.2966 4.04016 10.2018 4.00022 10.103 4.00022L1.31262 4.00022L3.65835 1.61534C3.693 1.5801 3.72049 1.53826 3.73924 1.49222C3.75799 1.44617 3.76765 1.39682 3.76765 1.34698C3.76765 1.29714 3.75799 1.24779 3.73924 1.20175C3.72049 1.1557 3.693 1.11387 3.65835 1.07862C3.6237 1.04338 3.58256 1.01543 3.53729 0.996357C3.49201 0.977285 3.44349 0.967468 3.39448 0.967468C3.34548 0.967468 3.29695 0.977285 3.25168 0.996357C3.2064 1.01543 3.16527 1.04338 3.13062 1.07862L0.149074 4.1109C0.114366 4.14611 0.0868295 4.18794 0.068041 4.23399C0.0492524 4.28004 0.0395812 4.3294 0.0395812 4.37926C0.0395812 4.42911 0.0492524 4.47848 0.068041 4.52453C0.0868295 4.57058 0.114366 4.6124 0.149074 4.64761L3.13062 7.67989C3.16527 7.71513 3.2064 7.74309 3.25168 7.76216C3.29695 7.78123 3.34548 7.79105 3.39448 7.79105C3.44349 7.79105 3.49201 7.78123 3.53729 7.76216C3.58256 7.74309 3.6237 7.71513 3.65835 7.67989C3.693 7.64465 3.72049 7.60281 3.73924 7.55677C3.75799 7.51072 3.76765 7.46137 3.76765 7.41153C3.76765 7.3617 3.75799 7.31234 3.73924 7.2663C3.72049 7.22026 3.693 7.17842 3.65835 7.14318L1.31262 4.75829L10.103 4.75829C10.2018 4.75829 10.2966 4.71836 10.3665 4.64728C10.4364 4.57619 10.4756 4.47978 10.4756 4.37926Z" fill="white"/>
</svg>
