<svg width="17" height="17" viewBox="0 0 17 17" fill="none" xmlns="http://www.w3.org/2000/svg">
<path d="M15.5141 11.8583L11.8013 8.14545L12.8516 7.09515L10.3429 4.58648L9.29259 5.63678L5.57976 1.92395L2.4155 5.08822L6.12833 8.80105L2.94399 11.9854V14.4941H5.45266L8.637 11.3097L12.3498 15.0225L15.5141 11.8583V11.8583ZM7.07828 7.8511L4.30871 5.08822L5.57976 3.81716L6.42937 4.66676L5.63328 5.46285L6.57654 6.4061L7.37263 5.61002L8.34264 6.58004L7.07828 7.8511V7.8511ZM9.58694 10.3598L10.858 9.08871L11.828 10.0587L11.0319 10.8548L11.9752 11.7981L12.7713 11.002L13.6209 11.8516L12.3498 13.1226L9.58694 10.3598V10.3598ZM11.0607 3.87268L12.7586 2.17415L15.2659 4.68148L13.568 6.38002L11.0607 3.87268Z" fill="#F9995D"/>
</svg>
