<svg width="17" height="17" viewBox="0 0 17 17" fill="none" xmlns="http://www.w3.org/2000/svg">
<g clip-path="url(#clip0_3130_358)">
<path d="M14.7759 5.79736C15.1307 5.79736 15.471 5.93833 15.722 6.18924C15.9729 6.44016 16.1138 6.78047 16.1138 7.13532V9.81123C16.1138 10.1661 15.9729 10.5064 15.722 10.7573C15.471 11.0082 15.1307 11.1492 14.7759 11.1492H14.0654C13.9023 12.4425 13.2729 13.6319 12.2951 14.4941C11.3174 15.3563 10.0586 15.832 8.75507 15.832V14.4941C9.81961 14.4941 10.8406 14.0712 11.5933 13.3184C12.3461 12.5657 12.7689 11.5448 12.7689 10.4802V6.46634C12.7689 5.4018 12.3461 4.38085 11.5933 3.62811C10.8406 2.87536 9.81961 2.45247 8.75507 2.45247C7.69053 2.45247 6.66958 2.87536 5.91684 3.62811C5.16409 4.38085 4.7412 5.4018 4.7412 6.46634V11.1492H2.73427C2.37942 11.1492 2.0391 11.0082 1.78819 10.7573C1.53727 10.5064 1.39631 10.1661 1.39631 9.81123V7.13532C1.39631 6.78047 1.53727 6.44016 1.78819 6.18924C2.0391 5.93833 2.37942 5.79736 2.73427 5.79736H3.44472C3.60797 4.50416 4.23751 3.31497 5.21522 2.45292C6.19293 1.59088 7.4516 1.11523 8.75507 1.11523C10.0585 1.11523 11.3172 1.59088 12.2949 2.45292C13.2726 3.31497 13.9022 4.50416 14.0654 5.79736H14.7759ZM5.9186 11.0054L6.62772 9.87077C7.26531 10.2702 8.00271 10.4814 8.75507 10.4802C9.50743 10.4814 10.2448 10.2702 10.8824 9.87077L11.5915 11.0054C10.7414 11.538 9.75823 11.8197 8.75507 11.8182C7.75191 11.8197 6.7687 11.538 5.9186 11.0054Z" fill="#F9995D"/>
</g>
<defs>
<clipPath id="clip0_3130_358">
<rect width="16.0555" height="16.0555" fill="white" transform="translate(0.727333 0.445557)"/>
</clipPath>
</defs>
</svg>
