<svg width="67" height="20" viewBox="0 0 67 20" fill="none" xmlns="http://www.w3.org/2000/svg">
<path d="M8.5824 15.14V19.4883L16.2081 15.0837V10.736L8.5824 15.14Z" fill="#2947A9"/>
<path d="M11.996 6.74208L15.7586 4.56793L8.5824 0.422241V4.77039L11.996 6.74208Z" fill="#0B267D"/>
<path d="M5.6187 8.04028V12.3899L8.58227 14.1013V9.75364L5.6187 8.04028Z" fill="#91A1D4"/>
<path d="M16.2081 5.34717L8.5824 9.75359V14.1012L16.2081 9.69659V5.34717Z" fill="#2947A9"/>
<path d="M1.40946 4.56539L5.14951 6.75224L8.58227 4.77039V0.422241L1.40946 4.56539Z" fill="#2947A9"/>
<path d="M4.71923 12.9094V7.51865L0.955345 5.34521V15.0834L8.58226 19.488V15.1398L4.71923 12.9094Z" fill="#91A1D4"/>
<path d="M30.4854 5.8831L30.1121 7.48464H27.5472L26.0782 13.8306H24.007L25.4761 7.48464H22.8871L23.2604 5.8831H30.4854ZM29.5416 13.8306L31.5285 5.25694H33.5756L32.6724 9.1825L32.4677 9.4715C32.5721 9.13434 32.7286 8.8333 32.9374 8.56838C33.1461 8.30347 33.407 8.09073 33.7201 7.93018C34.0331 7.76962 34.3904 7.68934 34.7918 7.68934C35.1932 7.68934 35.5343 7.78166 35.8153 7.9663C36.1043 8.15094 36.305 8.41184 36.4174 8.74901C36.5378 9.08617 36.5458 9.48756 36.4415 9.95317L35.5383 13.8306H33.4913L34.3221 10.2783C34.3944 9.95718 34.3663 9.70832 34.2379 9.53171C34.1094 9.34707 33.9007 9.25475 33.6117 9.25475C33.3949 9.25475 33.2023 9.30693 33.0337 9.4113C32.8731 9.50763 32.7327 9.65614 32.6122 9.85684C32.4998 10.0495 32.4115 10.2903 32.3473 10.5793L31.5887 13.8306H29.5416ZM40.2752 13.9389C39.6812 13.9389 39.1594 13.8266 38.7098 13.6018C38.2603 13.369 37.911 13.0479 37.6622 12.6384C37.4133 12.229 37.2889 11.7514 37.2889 11.2055C37.2889 10.5312 37.4254 9.9331 37.6983 9.4113C37.9793 8.88146 38.3726 8.46402 38.8784 8.15897C39.3922 7.85391 40.0023 7.70139 40.7087 7.70139C41.2947 7.70139 41.7925 7.81378 42.2019 8.03855C42.6193 8.2553 42.9364 8.56437 43.1532 8.96576C43.3699 9.36714 43.4783 9.84078 43.4783 10.3867C43.4783 10.5392 43.4703 10.6997 43.4542 10.8683C43.4381 11.0369 43.406 11.2015 43.3579 11.362H38.6135V10.2542H42.0212L41.4553 10.5673C41.4874 10.4549 41.5075 10.3586 41.5155 10.2783C41.5235 10.198 41.5275 10.1218 41.5275 10.0495C41.5275 9.84078 41.4914 9.66818 41.4192 9.53171C41.3469 9.39524 41.2466 9.29489 41.1181 9.23067C40.9897 9.15842 40.8372 9.1223 40.6605 9.1223C40.3715 9.1223 40.1307 9.19053 39.938 9.327C39.7534 9.46348 39.6049 9.6441 39.4925 9.86888C39.3801 10.0856 39.2998 10.3224 39.2517 10.5793C39.2115 10.8362 39.1915 11.0851 39.1915 11.3259C39.1915 11.5828 39.2396 11.7995 39.336 11.9762C39.4403 12.1528 39.5768 12.2892 39.7454 12.3856C39.922 12.4739 40.1267 12.518 40.3595 12.518C40.6485 12.518 40.8813 12.4538 41.0579 12.3254C41.2345 12.1889 41.371 12.0203 41.4673 11.8196L43.1532 12.4819C43.0167 12.787 42.804 13.0479 42.515 13.2646C42.234 13.4814 41.9008 13.6499 41.5155 13.7704C41.1382 13.8827 40.7248 13.9389 40.2752 13.9389ZM44.7671 13.8306V5.8831H48.6325C49.6119 5.89113 50.3343 6.07978 50.8 6.44906C51.2656 6.81031 51.4984 7.33612 51.4984 8.02651C51.4984 8.47606 51.3659 8.86541 51.101 9.19455C50.8361 9.51566 50.4307 9.72036 49.8848 9.80867V9.82071C50.4949 9.90099 50.9485 10.1137 51.2455 10.4589C51.5506 10.7961 51.7031 11.2055 51.7031 11.6872C51.7031 12.3695 51.4622 12.8993 50.9806 13.2767C50.4989 13.6459 49.7764 13.8306 48.8131 13.8306H44.7671ZM46.766 12.3735H48.4639C48.8412 12.3735 49.1222 12.2973 49.3068 12.1447C49.4914 11.9922 49.5838 11.7715 49.5838 11.4825C49.5838 11.2015 49.4914 10.9887 49.3068 10.8442C49.1222 10.6917 48.8412 10.6155 48.4639 10.6155H46.766V12.3735ZM46.766 9.13434H48.2712C49.0098 9.13434 49.379 8.84534 49.379 8.26734C49.379 7.68935 49.0098 7.40035 48.2712 7.40035H46.766V9.13434ZM55.7201 7.68934C56.3543 7.68934 56.9082 7.81377 57.3818 8.06263C57.8635 8.30347 58.2368 8.6607 58.5017 9.13434C58.7746 9.59995 58.9111 10.1619 58.9111 10.8202C58.9111 11.4784 58.7746 12.0444 58.5017 12.518C58.2368 12.9836 57.8635 13.3409 57.3818 13.5897C56.9082 13.8306 56.3543 13.951 55.7201 13.951C55.1019 13.951 54.552 13.8306 54.0704 13.5897C53.5887 13.3409 53.2114 12.9836 52.9385 12.518C52.6736 12.0444 52.5411 11.4784 52.5411 10.8202C52.5411 10.1619 52.6736 9.59995 52.9385 9.13434C53.2114 8.6607 53.5887 8.30347 54.0704 8.06263C54.552 7.81377 55.1019 7.68934 55.7201 7.68934ZM55.7201 9.14638C55.4873 9.14638 55.2866 9.20257 55.118 9.31496C54.9494 9.42735 54.821 9.60797 54.7327 9.85684C54.6444 10.1057 54.6002 10.4268 54.6002 10.8202C54.6002 11.2135 54.6444 11.5346 54.7327 11.7835C54.821 12.0243 54.9494 12.2049 55.118 12.3254C55.2866 12.4378 55.4873 12.4939 55.7201 12.4939C55.9609 12.4939 56.1656 12.4378 56.3342 12.3254C56.5028 12.2049 56.6312 12.0243 56.7195 11.7835C56.8078 11.5346 56.852 11.2135 56.852 10.8202C56.852 10.4268 56.8078 10.1057 56.7195 9.85684C56.6312 9.60797 56.5028 9.42735 56.3342 9.31496C56.1656 9.20257 55.9609 9.14638 55.7201 9.14638ZM61.5035 7.80976L62.9726 10.5191L63.6469 10.4589L66.0191 13.8306H63.671L62.1538 11.0851H61.4433L59.1434 7.80976H61.5035ZM65.971 7.80976L63.6951 11.061L62.9365 11.0128L61.359 13.8306H59.0591L61.4795 10.4348L62.1779 10.5312L63.671 7.80976H65.971Z" fill="#2947A9"/>
</svg>
